<svg version="1" xmlns="http://www.w3.org/2000/svg" width="933.333" height="933.333" viewBox="0 0 700.000000 700.000000"><path d="M324 57c-94.7 9.1-159.6 56.8-175.1 128.8-3 14.1-3.7 40.5-1.5 53.8 8.2 48.3 32.6 76.1 93.1 105.9 28.7 14.2 55.4 23.9 98.5 36 35.3 9.9 62.7 19.7 81.3 29.2 28.4 14.5 40.2 30.7 40 55-.4 44-38.7 63.9-113.9 59.5-72.8-4.3-118.4-23.7-167.6-71-6.5-6.3-12-11.3-12.3-11.1-.2.3-12.6 21.8-27.5 47.8l-27.1 47.4 2.8 3c6.6 7.1 29.1 24.8 44.3 34.9 55.1 36.8 119.2 53.9 202 54.1 29.8.1 40.7-.9 62.6-5.8 17-3.9 33-9.6 49.9-18 23.7-11.7 41.3-24.2 57.9-41.2 32-32.8 48-68.2 49.3-109.3 1.9-53.8-16.2-90.9-57.7-118.5-5.2-3.4-19.4-11.6-31.5-18.2-20.8-11.2-23.2-12.2-42.5-18.2-112.1-34.6-130.7-41.7-150.7-56.8-14.6-11.1-21.3-23.2-21.3-38.9 0-8 1.7-13.7 5.6-19.2 15.9-22 66.1-31.8 113.9-22.1 39.4 7.9 74.8 29.1 98.8 59.2 5.7 7.1 7.3 8.6 8.2 7.5.7-.7 15.8-21.4 33.5-46l32.1-44.8-6.2-5.7c-32.5-30.3-74.1-54-114.7-65.8-14.6-4.1-32.8-8-48.2-10.1-13.7-1.8-61.8-2.7-76-1.4z"/><path d="M487 232.2c0 .7 2.3 2.8 5.1 4.6 4.1 2.7 5.3 3.1 6.5 2.1 1.2-.9 2-.9 3.9.1 3.4 1.8 4 .8 2-3.1l-1.7-3.2-1.8 2.3-1.7 2.3-4.6-3.2c-4.8-3.2-7.7-4-7.7-1.9zM170.6 435.6c-.3.9-.6 1.7-.6 2 0 .8 10 5.4 11.9 5.4 3.3 0 1.5-2.3-4.3-5.8-6.3-3.7-6.2-3.7-7-1.6zM163 436.3c0 1.9 3.6 5 4.9 4.2 1.8-1.1 1.2-2.4-1.9-4-2.5-1.3-3-1.3-3-.2z"/></svg>