<?xml version="1.0" encoding="utf-8"?>
<!-- Generator: Adobe Illustrator 20.0.0, SVG Export Plug-In . SVG Version: 6.00 Build 0)  -->
<svg version="1.1" id="Layer_1" xmlns="http://www.w3.org/2000/svg" xmlns:xlink="http://www.w3.org/1999/xlink" x="0px" y="0px"
	 viewBox="0 0 185.7 242.8" style="enable-background:new 0 0 185.7 242.8;" xml:space="preserve">
<g id="Layer_2">
</g>
<g id="Layer_1_1_">
	<g>
		<path d="M1,110.1c3.5,0,5,2,5.7,5.1c0.2,0.7,0.3,1.5,0.8,2c0.7,0.7,1.6,1.4,2.5,1.5c1.5,0.2,3.1-0.1,4.8-0.2
			c0.2,0.8,0.4,1.6,0.5,2.4c2.4,11.6,10.2,19.2,21.8,19.9c6.9,0.4,13.9-0.2,20.8-0.8c3.6-0.3,7-1.7,10-4
			c7.4-5.6,10.6-13.3,11.8-22.2c0.3-2.1,0-4.4,2.3-5.6c0.3-0.1,0.5-0.6,0.6-0.9c0.2-1.7,1.4-1.9,2.7-1.9c3.7-0.1,7.4-0.3,11.1-0.2
			c2.7,0.1,5.8-0.4,6.9,3.2c0,0.1,0.1,0.1,0.2,0.2c1.8,0.8,1.8,2.4,1.9,4c0.3,5,1.7,9.7,4,14.1c3.4,6.4,8.3,11.1,15.5,12.9
			c7.8,1.9,15.8,2.2,23.8,1.3c11.1-1.3,18.1-7.8,20.8-18.7c0.3-1.2,0.6-2.4,0.9-3.7c1.2,0.1,2.1,0.2,3.1,0.3c3.6,0.2,3.8,0.1,5-3.3
			c0.1-0.3,0.2-0.5,0.3-0.8c0.5-2.9,2.3-4.3,5.3-4.5c0.5,0,1.3-0.7,1.4-1.1c0.7-3.4-0.5-5.7-3.7-7.1c-0.7-0.3-1.5-0.6-2.2-0.9
			c-16.5-5.6-33.4-8.6-50.8-7.7c-7.5,0.4-14.8,1.6-21.7,4.7c-2.3,1-4.5,2.1-4.5,5.1c-6.5-1.2-12.9-1.2-19.4,0c0-2.9-2.1-4.1-4.3-5.1
			c-7.1-3.1-14.7-4.4-22.4-4.8c-12.7-0.7-25.3,1.1-37.6,4c-5.4,1.3-10.7,3.2-15.9,5.1c-2.4,0.8-3.7,4.7-2.7,7
			C0.1,109.7,0.7,110.1,1,110.1L1,110.1z M113.8,101L113.8,101c5-1.2,10.2-2.2,15.3-2.9c2.5-0.4,5.1-0.1,7.6-0.1
			c7.2-0.4,14.3,0.2,21.1,3c6.2,2.5,10.5,6.9,11.2,13.7c0.3,3.1-0.6,6.5-1.6,9.5c-2.9,8.7-8.4,14.4-18,15.3
			c-7.5,0.8-15.1,1.1-22.5-0.4c-9.8-2-15.6-8.6-18.8-17.7c-0.8-2.4-1.2-4.9-1.6-7.4C105.6,109.2,108.9,102.2,113.8,101L113.8,101z
			 M16.5,112.6L16.5,112.6c1.5-5.2,4.8-9,9.9-11.2c5.4-2.4,11-3.4,16.9-3.6c8.2-0.2,16.4-0.1,24.4,1.9c3,0.7,6,1.8,8.1,4.4
			c2.7,3.4,3.5,7.2,2.8,11.6c-1.3,8.3-5,15-11.8,20c-4.8,3.5-10.3,3.9-15.9,4.3c-1.6,0.1-3.2,0-4.8,0c0,0.1,0,0.2,0,0.3
			c-3.4-0.3-6.9-0.6-10.4-0.9c-9.3-0.8-14.7-6.5-17.7-14.8C16.5,120.8,15.3,116.8,16.5,112.6L16.5,112.6z"/>
		<path d="M160.1,206.8c-13.9,9.1-26.8,1.9-38.3-7c-4.6-3.6-9.3-7.5-14.9-9.3c-4.9-1.6-10.5-3.4-14.2-6.5c-3.7,3.2-9.2,4.9-14.2,6.5
			c-5.6,1.8-10.3,5.8-14.9,9.3c-11.5,8.9-24.4,16.1-38.3,7c-6.3-4.2-14.7-13.1-8.5-20.7c4.6-5.6,14.7-6.7,14.5,2.6
			c0,0.9-1.4,0.8-1.5,0c-1.2-8.3-12.6-3.6-11.4,2.8c2,11.3,15.4,9.5,22.1,3.9c6.6-5.6,9.2-14.6,14.3-21.4c6.2-8.3,17.5-15,28.3-13.2
			c3.4,0.6,7,2.1,9.6,4.5c2.6-2.4,6.2-3.9,9.6-4.5c10.8-1.9,22.1,4.9,28.3,13.2c5.1,6.8,7.7,15.8,14.3,21.4c6.6,5.6,20,7.4,22.1-3.9
			c1.1-6.3-10.2-11.1-11.4-2.8c-0.1,0.8-1.5,0.9-1.5,0c-0.2-9.3,9.9-8.2,14.5-2.6C174.9,193.6,166.5,202.6,160.1,206.8L160.1,206.8z
			"/>
		<path d="M9.5,133.1c-1.5,2.7,0.2,7,0.6,9.9c0.5,1.5,0.9,3.1,0.9,4.6c0.1,0.3,0.1,0.8,0.1,1.1c0,0.2-0.2,0.4-0.4,0.5c0,0,0,0,0,0.1
			l0,0l0,0c-0.7,0-1.2-0.3-1.4-1c0-0.1-0.1-0.3-0.1-0.5l0,0c-0.2-0.7-0.3-1.5-0.5-2.2c-0.7-1.8-1.1-3.9-1.5-5.6
			c-0.7-2.5-2.8-17.6,3.8-16.1c2.4,0.6,6.1,6.2,5.6,9c0,0.2-0.1,0.3-0.1,0.4C15.2,136.6,9.6,133,9.5,133.1L9.5,133.1z M17.1,160.3
			L17.1,160.3c-0.6-0.5-1.2-1-1.7-1.5c-0.6-0.6-1.5-1.8-2.4-2c-0.1,0-0.1,0-0.1,0.1c0.1,0.9,1.2,1.9,1.7,2.7
			c0.8,1.1,1.7,2.9,2.9,3.5c0.9,0.5,1.6-0.8,1.1-1.5C18.2,161.1,17.6,160.7,17.1,160.3L17.1,160.3z M17.2,139.3L17.2,139.3
			c0.2-0.5-0.8-1.4-1.2-1.4c-0.9-0.2-1.3,1.9-1.6,2.4c-1.7,3.1-2.6,8.1-1.7,11.4c0.7,2.4,4.8,5.4,6.4,2.2
			C20.9,150.3,15.4,144.1,17.2,139.3L17.2,139.3z M167.2,147.9L167.2,147.9c-0.2,0.5,0,1.1,0.3,1.6c0.7,1.2,1.7-2.4,1.8-2.8
			c0.6-2.3,1.2-4.6,1.8-6.8c0.7-2.5,2.8-17.6-3.8-16.1c-2.4,0.6-6.1,6.2-5.6,9c0,0.2,0.1,0.3,0.1,0.4c1.3,3.5,6.9-0.1,7-0.1
			c1.4,2.7-0.2,7-0.6,9.9C167.5,144.6,167.1,146.3,167.2,147.9L167.2,147.9z M159,153.9L159,153.9c1.6,3.2,5.6,0.3,6.4-2.2
			c1-3.2,0-8.3-1.6-11.4c-0.3-0.5-0.7-2.6-1.6-2.4c-0.4,0.1-1.5,0.9-1.2,1.4C162.8,144.1,157.3,150.3,159,153.9L159,153.9z
			 M162.8,158.9L162.8,158.9c-0.6,0.5-1.1,1-1.7,1.5c-0.5,0.4-1.2,0.7-1.6,1.3c-0.5,0.7,0.2,2,1.1,1.5c1.3-0.6,2.1-2.4,2.9-3.5
			c0.5-0.7,1.6-1.8,1.7-2.7c0-0.1,0-0.1-0.1-0.1C164.3,157,163.4,158.3,162.8,158.9L162.8,158.9z M170.5,162.5L170.5,162.5
			c-1.5,2.6-3.3,5.9-5.6,8.4c-1.9,3.8-4.5,7.8-10.1,5c-0.4-0.2-2.3,1.3-2.3,2.1c-0.3,4.2-1.1,8.2-2.4,12l0,0c0,0,0,0,0,0.1
			c-0.7,2.2-1.6,4.2-2.6,6.3c-2.4,5.6-5.1,11-8.9,15.9c-2.5,3.2-5.3,6.1-8.3,8.8c-7.3,6.8-12.7,15-22.2,19.1c-7.1,3-15.3,2.9-22.8,2
			c-5.5-0.6-11.1-2.1-15.9-4.9c-10.6-6.2-19.7-14.5-27.4-24C33.7,203,26.6,192,25.8,178.1c-0.1-0.8-1.9-2.3-2.3-2.1
			c-5.7,2.8-8.2-1.2-10.1-5c-2.3-2.6-4.1-5.9-5.6-8.4c-4.7-7.9-8.6-21.1-6.8-30.2c0.9-4.8,1.8-9.5,2.8-14.3c0.7-3.5,2.8-5.9,6.5-5.9
			s3.7-1.3,3.1-4.6C9.7,88.9,7.2,70.1,11,51.1c1.4-6.8,4-12.9,9.5-17.3c8.4-6.7,17-13.2,25.5-19.7C55.1,7.2,65.1,2.5,76.7,1.4
			c1.1-0.1,2.1-0.9,3.1-1.4h11.1c9.7,3,19.7,4.9,29.9,5c11.8,0.1,16.8,8.4,19.8,17.1c0.3,0.8-0.1,1.9-0.2,2.8
			c-0.7-0.6-1.5-1.1-1.9-1.9c-0.8-1.3-1.3-2.7-2-4.1c-1.3-2.9-1.2-2.7-3.2-1c-0.6,0.5-2.4-1-2.9,1.1c-0.1,0.4-1.2,0.7-1.2,1.1
			c-0.1,0.9,0.2,1.8,0.4,2.7c-1.6,0.1-3.5,0.9-4.7,0.3c-2.9-1.5-5.5-3.7-8.1-5.7c-0.8-0.6-1.5-1.4-2.4-1.8c-0.8-0.4-1.8-0.4-2.7-0.6
			c0.4,0.7,0.7,1.5,1.3,2c2.3,1.9,4.7,3.7,7.1,5.6c0.5,0.4,0.9,0.9,1.4,1.3c-0.6,0.1-1.2,0.4-1.8,0.4c-1.6-0.1-3.1-0.3-4.7-0.5
			c1.2,1.4,2.2,3.1,3.7,4c2.3,1.4,3.2,5.6,7.3,3.8c0.4-0.2,1.5,1.2,2.2,1.8c0.7,0.7,1.5,1.3,2.2,2c-0.3-0.9-0.6-1.8-0.9-2.7
			c-0.2-0.5-0.6-0.8-0.8-1.3c-0.4-1.3-0.7-2.6-1.1-3.9c0.9,0.9,1.8,1.8,2.6,2.8c0.4,0.5,0.6,1.3,1.1,1.7c0.9,0.6,2,0.9,3,1.3
			c0-1,0-2,0-2.9s-0.1-1.8-0.2-2.7c0.7,0.7,1.3,1.5,2.1,2c1.7,1.1,4,1.6,5.1,3.1c3.8,4.7,2,11.7-3.9,14.8c-3.7,2-7.7,3.5-11.6,5.1
			c-0.4,0.2-1.5-0.1-1.7-0.4c-0.8-1.6-1.3-2.4-2.6-0.2c-0.4,0.6-2.2,0.4-3.3,0.6c-0.6,0.1-1.3-0.1-1.8,0.2c-1.1,0.6-2.1,1.4-3.2,2.1
			c-0.6-1.3-1.2-2.5-1.8-3.8c-0.4-0.8-0.7-1.7-1-2.6c-0.1,0.9-0.2,1.8-0.2,2.7c0.1,4.4-3.2,3.5-5.7,3.5c-2.2,0-4.5,0.2-6.6-0.5
			c-1.8-0.6-3.6-1.9-5-3.2c-0.9-0.9-1-2.5-1.8-3.6c-0.6-0.9-1.6-1.7-2.4-2.5c0.3,1,0.6,2,0.9,3c0.5,1.6,1.2,3.2,1.4,4.8
			c0.1,0.5-1.6,1.9-1.9,1.7c-6.6-3.1-13.4-1.2-20.2-1c-0.3,0-0.7,0.1-1,0C63,52.9,58.2,52,53.3,54c-0.8,0.3-2.4-0.9-3.5-1.6
			c-1.4-1-2.4-2.4-3.8-3.2c-1.2-0.7-2.7-0.7-4.1-1c1,0.8,2,1.8,3.1,2.5c4.2,2.4,4.3,5.2,0.2,7.7c-1.9,1.1-3.8,2.4-5.8,3.1
			c-5.4,1.8-6.9,6.4-8.1,11.1c-1.6,6.3-3,12.7-4.3,19.1c-0.3,1.5,0.5,3.2,0.3,4.8c-0.7,5.6-1.8,11.2-2.4,16.8
			c-0.3,2.6,0.4,5.2,0.3,7.9c-0.1,2,0.5,5.1-2.6,5c-1.4-0.1-3-2.4-4.1-4c-0.9-1.4-0.8-3.4-1.8-4.7c-1.2-1.6-3.3-3.8-4.7-3.6
			c-2.1,0.3-5.2,2.2-5.7,3.9c-0.6,2.3-1.2,4.6-1.7,7c-1.6,7.6-3.1,16.3,0.2,23.6c0.6,1.3,1.1,2.5,1.7,3.8c1.2,2.6,2.4,5.1,3.7,7.7
			c1.2,2.5,1.9,5.1,3.2,7.6c1.1,2.1,2.6,3.9,4.4,5.5c0.7,0.6,1.3,1.6,2.2,1.8c0.7,0.2,1.5,0.1,2.2-0.2c1.5-0.6,1.9-2.3,1.9-3.7
			c-0.3-5.9-1.1-11.7-1.5-17.6c-0.3-3.9-0.6-7.7-0.7-11.6c0-0.6,0.6-1.3,0.9-1.9c0.3,0.5,0.9,1,1,1.6c0.6,3.8,1.1,7.6,1.6,11.4
			c1.2,9.7,2.1,19.4,3.6,29c2.7,17.3,13.1,29.9,25.9,40.9c3.8,3.3,7.7,6.5,11.7,9.7c10.7,8.7,27,9.8,39.7,5.7c1.4-0.5,2.8-1,4.2-1.6
			c1.6-0.9,3.1-1.9,4.6-3c1.1-0.8,2.2-1.6,3.2-2.4c6.4-5.6,12.2-12.8,16.9-19c3.9-5.1,7.3-10.5,10.1-16.2c2-4.3,3.4-8.9,4.2-14
			c1.5-9.6,2.4-19.4,3.6-29c0.5-3.8,1-7.6,1.6-11.4c0.1-0.6,0.7-1.1,1-1.6c0.3,0.6,0.9,1.3,0.9,1.9c-0.2,3.9-0.4,7.7-0.7,11.6
			c-0.5,5.9-1.2,11.7-1.5,17.6c-0.1,1.8,1.3,3.8,3.2,3.7c6.3-0.4,8.1-10.1,10.5-14.5c2.6-4.8,4.7-9.8,6.9-14.7
			c1.5-9.2-0.4-18.4-2.8-27.5c-0.5-1.8-3.6-3.6-5.7-3.9c-1.4-0.2-3.5,2.1-4.7,3.6c-1,1.2-0.9,3.3-1.8,4.7c-1.1,1.6-2.6,3.9-4.1,4
			c-3.8,0.2-2.8-4.1-1.5-7.1c-0.2-0.2-0.3-0.4-0.2-0.7c1.4-9.8,1.9-19.9,4.3-29.5c1.4-5.8,0.4-10.8-3.2-15.6c-2.8-3.8-2-5.5,2.6-6.6
			c1.6-0.4,3.4-0.4,5-0.9c1-0.3,1.8-1,2.7-1.5c-1.1-0.2-2.3-0.8-3.4-0.5c-2.1,0.5-4.1,1.4-6.2,2c-3.3,1-5.6,0.4-7.5-3
			c-1.7-3.1-4.2-5.9-6.7-8.6c-2.6-2.8-2.5-5.4,0.2-7.8c2.2-2,4.8-3.6,7.3-5.3c0.9-0.6,2.3-0.8,3.2-1.4c1.2-0.9,2.2-2.1,3.3-3.2
			c-2.2-0.6-5.6-2.4-6.5-1.6c-2.7,2.7-2.9,0.3-3.6-1.2c-0.6-1.2-0.9-2.5-1.3-3.8c-0.6-2.2,0.6-3,2.4-2.3c2.8,1.1,6.2,2,8,4.1
			c3.7,4.4,7.3,9.1,9.6,14.3c3,6.7,4.9,13.9,6.8,21.1c0.8,3.1,1,6.8,0.2,9.8c-2.9,10.6-2.9,21.8-6.3,32.3v0.1
			c-0.3,2.2,0.3,3.1,3.4,3.1c3.7,0,5.8,2.4,6.5,5.9c1,4.7,1.9,9.5,2.8,14.3C179.1,141.5,175.2,154.7,170.5,162.5L170.5,162.5z
			 M152.4,46.5L152.4,46.5c0.3-0.3,0.6-0.7,0.8-1c0.5-1.2,0.9-2.4,1.3-3.6c-1.2,0.2-2.6,0.1-3.5,0.8c-1.3,0.9-2.3,2.3-3.4,3.4
			C149.2,46.2,150.8,46.3,152.4,46.5L152.4,46.5z M154.7,49.2L154.7,49.2c0.5,0,1.1,0.1,1.5-0.2c0.9-0.4,1.7-1,2.5-1.6
			c-0.9-0.7-1.7-1.8-2.6-1.9c-1.2-0.1-2.4,0.6-3.7,0.9c-0.8,1-1.6,1.9-2.5,2.9C151.6,49.4,153.1,49.3,154.7,49.2L154.7,49.2z
			 M158.1,56.1L158.1,56.1c1.3-0.1,2.4-1.4,3.6-2.1c0-0.6-0.1-1.2-0.1-1.8c-1.1-0.6-2.6-2-3.1-1.7c-1.6,1-2.8,2.6-4.1,4
			C155.6,55.1,156.9,56.2,158.1,56.1L158.1,56.1z M160.9,56.5L160.9,56.5c-1.7,1.9-3,3.4-4.3,4.9c0.9,0.3,2,1.1,2.7,0.8
			c1.3-0.5,2.7-1.4,3.5-2.5C163.1,59.5,161.7,57.9,160.9,56.5L160.9,56.5z M164.6,74.8L164.6,74.8c-0.1,1.3-0.4,2.6-0.3,3.8
			c0.1,0.6,0.9,1.1,1.5,1.5c0.3,0.2,1.2-0.3,1.2-0.3C166.7,77.9,168.4,74.9,164.6,74.8L164.6,74.8z M159.6,70.4L159.6,70.4
			c4.5-2,3,3.3,5,4.3v0.1c3.5-1.4,3.7-4,1.7-6.6c-2.6-3.4-3.9,1.7-6.2,1.3C160,69.5,159.8,70.1,159.6,70.4L159.6,70.4z M108.7,25.5
			L108.7,25.5c-3.6,2.2-6.5,1.3-9.8-0.1c-1.4-0.5-3.3,0.1-4.9,0.3c-9.4,1.2-18.9,2.5-28.3,3.7c-0.1-0.4-0.1-0.7-0.2-1.1
			c-2.5,0.6-4.9,1.3-7.4,1.9c-0.5,0.1-1.1,0.4-1.6,0.6c0.5,0.4,0.9,1,1.5,1.2c3.7,1.8,7.6,3.3,11.2,5.2c1.8,1,3.2,2.8,4.8,4.2
			c-0.3-2-0.6-4.1-0.8-6.1c-0.1-0.7,0.2-1.5,0.3-2.3c0.7,0.4,1.4,0.8,2,1.3c2.8,2.4,5.5,4.8,8.3,7.2c0.7,0.5,1.6,0.7,2.4,1.1
			c-0.5-0.6-1-1.3-1.5-1.8c-0.6-0.6-1.4-1-1.8-1.7c-0.9-1.3-1.7-2.7-2.6-4.1c1.3,0.7,2.5,1.5,3.8,2.2c0.6,0.3,1.1,0.6,1.7,0.9
			c0-0.8,0.1-1.6-0.1-2.3c-0.3-0.8-1-1.4-1.4-2.1c-0.6-1.2-1.2-2.4-1.8-3.6c1.1,0.7,2.2,1.4,3.3,2.2c1.2,0.9,2.3,1.9,3.6,2.7
			c0.4,0.3,1.7,0.3,1.7,0.2c1.1-4.4,3.5-0.2,5-0.8c0.9-0.3,5.3,1.2,2.1-2.7c-0.3-0.3-0.2-0.9-0.3-1.3c0.6,0,1.3-0.1,1.9,0.2
			c3.7,1.7,5.7,6.8,11,5.3c0.1,0,0.4,0.5,0.7,0.7c0.8,0.7,1.7,1.3,2.5,1.9c-0.1-1.2-0.1-2.5-0.4-3.7c-0.2-0.9-0.7-1.7-1-2.6
			c1.2,0.2,2.6,0.1,3.7,0.7c1.3,0.7,2.4,1.9,3.6,2.8c-0.6-1.5-1.2-3-1.9-4.4c-0.2-0.5-0.5-0.9-0.7-1.3C115.8,27.2,111,24,108.7,25.5
			L108.7,25.5z M83.5,4.5L83.5,4.5c0.2,0.4,0.4,0.8,0.5,1.2c0.3,0.7,0.5,1.5,0.7,2.2C85,8,85.3,8.1,85.5,8.3c6.6,6,6.6,6,13.6,7.5
			c0.3,0.1,0.6,0.1,0.9,0.1c0-0.3,0-0.6-0.1-0.8c-0.5-0.7-1.1-1.2-1.6-1.9c-0.4-0.6-0.7-1.3-1.1-2c0.9,0.3,1.9,0.4,2.5,1
			c1.8,1.8,3.3,3.8,5,5.6c0.3,0.4,0.8,0.6,1.2,0.9c0-0.5,0.1-1,0.1-1.6C105.8,13,95.7,4.2,92.2,5.7c-3,1.2-5,0.5-7.3-1
			C84.5,4.4,84,4.5,83.5,4.5L83.5,4.5z M78.8,10.8L78.8,10.8c3.1,3.1,5.6,7.2,10.9,6.9c0.6,0,1.1,0.5,1.7,0.7
			c-0.2-0.8-0.2-1.6-0.7-2.2c-1.9-2.8-4-5.5-6-8.3c-1.5,0-3.1-0.4-4.4,0.1C79.6,8.4,78.6,10.6,78.8,10.8L78.8,10.8z M69.4,17.3
			L69.4,17.3c2.2,1.3,3.9,4.2,7.6,2.9c1.3,0,1.2,0,1.2-1.7c0-0.2,1.2-0.8,1.5-0.6c1.7,1,3.3,2.3,4.9,3.4c0.4,0.3,0.9,0.4,1.3,0.6
			c0-0.4,0.1-0.9-0.1-1.1c-3.7-4.4-7.7-8.6-13.8-9.2c-1.4-0.1-3.1,1.8-4.3,3.1C67.6,14.8,68.5,16.8,69.4,17.3L69.4,17.3z M56.2,23.2
			L56.2,23.2c1.3,0.7,2.7,1.6,4,1.5c2.9-0.3,5.8-1.2,8.7-1.7c1-0.2,2.2,0.2,3.3,0.3c-1.2-1.2-2.2-2.8-3.7-3.5
			c-1.1-0.6-2.8-0.2-4.2,0c-1.8,0.3-3.5,0.8-5.2,1.2c-0.1-0.3-0.3-0.7-0.4-1c-1,0.5-2,0.9-2.8,1.5C55.6,21.7,55.8,23,56.2,23.2
			L56.2,23.2z M45.7,34.9L45.7,34.9c0.2,0.4,0.3,1,0.6,1.2c5.1,3,10.6,3.3,16.3,2.1c0.1,0,0.2-1.2,0-1.3c-3.7-1.9-7.4-3.8-10.4-5.2
			C48.8,31.6,49,36.2,45.7,34.9L45.7,34.9z M36.5,37.9L36.5,37.9c1.3,0.2,2.7,0.3,4,0.5c0.8,0.1,1.7,0.3,2.4,0.6
			c0.7,0.3,1.4,0.8,2,1.2c-0.7,0.1-1.5,0.1-2.2,0.3c-1.2,0.4-2.4,0.8-3.6,1.3c1.1,1.2,1.9,3,3.2,3.6c2.7,1.1,5.7,1.6,8.6,2.2
			c0.2,0,0.9-0.8,0.8-1.2c-0.7-2.9,0.3-2.7,2.1-1.3c0.5,0.4,1.1,0.5,1.7,0.8c-0.2-0.7-0.1-1.9-0.6-2.2c-4.4-2.8-9-5.5-13.5-8.3
			c-0.2,0.3-0.4,0.6-0.6,0.9C39.5,37,38,37.4,36.5,37.9L36.5,37.9z M28.8,66.9L28.8,66.9c-0.1-0.3-0.2-0.6-0.3-0.9
			c-0.4,0.3-1,0.5-1.1,0.9c-1.2,2.9-2.3,5.8-3.3,8.8c-0.2,0.6,0.2,1.4,0.3,2.1c0.5-0.6,1.3-1,1.5-1.7c0.9-2.7,1.7-5.5,2.5-8.3
			C28.6,67.6,28.7,67.3,28.8,66.9L28.8,66.9z M20.7,45.9L20.7,45.9c0.6,0.1,1.3,0.2,1.7,0c1.7-0.9,3.3-2,5.5-3.4
			c-1.5-0.1-2.8-0.6-3.9-0.3c-1.3,0.4-2.4,1.5-3.4,2.4C20.4,44.8,20.6,45.8,20.7,45.9L20.7,45.9z M19.7,53.4L19.7,53.4
			c1.6,0.8,3.5,2.5,4.8,2.2c2-0.5,3.7-2.4,5.5-3.7c-0.1-0.3-0.1-0.6-0.1-0.9c-2.7,0.2-5.5,0.3-8.2,0.7
			C20.9,51.7,20.3,52.8,19.7,53.4L19.7,53.4z"/>
		<path d="M135.7,110.8c3.6,0,6.5,2.8,6.5,6.3s-2.9,6.3-6.5,6.3s-6.5-2.8-6.5-6.3S132.1,110.8,135.7,110.8L135.7,110.8z"/>
		<path d="M64.9,109.4c3.6,0,6.5,2.8,6.5,6.3s-2.9,6.3-6.5,6.3s-6.5-2.8-6.5-6.3C58.4,112.2,61.3,109.4,64.9,109.4L64.9,109.4z"/>
	</g>
</g>
</svg>
