<?xml version="1.0" encoding="utf-8"?>
<!-- Generator: Adobe Illustrator 20.0.0, SVG Export Plug-In . SVG Version: 6.00 Build 0)  -->
<svg version="1.1" id="Layer_1" xmlns="http://www.w3.org/2000/svg" xmlns:xlink="http://www.w3.org/1999/xlink" x="0px" y="0px"
	 viewBox="0 0 300 350" style="enable-background:new 0 0 300 350;" xml:space="preserve">
<style type="text/css">
	.st0{fill:#3C3C3B;}
</style>
<g>
	<path class="st0" d="M216.9,213.7c-0.2,1.3-0.3,2.2-0.5,3.2c0.5-0.2,1-0.2,1.2-0.5c3.3-3.9,3-6.7-1.5-8.9c-3-1.4-6.4-2.4-9.7-2.7
		c-1.4-0.1-3.1,1.8-4.6,2.8c1.1,1.6,1.8,3.6,3.3,4.5c1.6,1,3.8,1.2,5.8,1.4C212.6,213.9,214.5,213.7,216.9,213.7z"/>
	<g>
		<path class="st0" d="M139.4,328.1c-2.2-3.6-4.4-7.2-6.5-10.5c-5.2,3.2-3.4-4.3-6.7-4.3c0,1.2,0,2.3,0,3.5
			c-0.4,0.2-0.8,0.4-1.2,0.6c-2.2-2.6-4.3-5.3-6.5-7.9c-0.1,0.4-0.3,0.7-0.4,1.1c-1.1-0.5-2.5-0.7-3.2-1.6c-3.1-3.9-6-8-9.6-12.9
			c-0.3,2.2-0.4,2.8-0.6,3.6c-1.2-1.2-2.2-3.1-3-3c-4.5,0.6-5.8-2.6-7.4-6.1c-0.6,0.9-1,1.5-1.6,2.5c-2.1-3-4-5.8-6-8.5
			c-0.2,0.1-0.4,0.3-0.6,0.4c1,2.1,2.1,4.3,3.1,6.4c-0.4,0.3-0.8,0.5-1.2,0.8c-1.6-2.3-3.2-4.6-4.8-6.9c-0.6-0.9-1.8-2.5-2-2.4
			c-4,2.3-3.5-2-4.7-3.4c-1.7-2-2.7-4.5-4-6.7c-0.3,0.2-0.6,0.4-1,0.5c1.2,2.7,2.5,5.5,3.7,8.2c-2.1-2.1-4-4.4-5.1-7
			c-3.8-8.7-9-16.4-15.5-23.3c-2.3-2.4-3.8-6.3-4.2-9.7c-0.7-5.9-0.2-12-0.2-17.9c-7.7-1.4-13.4-5.1-16.9-12.2
			c-4.8-9.6-9.8-19.2-14.8-28.7c-8.1-15.3-8.7-30.7-1-46.4c0.4-0.7,0.2-1.8,0.3-2.6c0.4-4.3,0.9-8.7,1.3-12.6
			c0.5-0.2-0.4,0.1-1.9,0.7c1.3-1.9,2.1-3,2.1-3.1c-1.5-6.1,1.6-9.4,3.8-13.2c-1.5,1-2.9,2.1-4.4,3.1c-0.2-0.2-0.4-0.3-0.6-0.5
			c1.3-2.5,2.5-5,3.8-7.5c-2.8-0.2-3.5-2.2-1.3-3.6c3.6-2.3,2.5-5.6,2.9-8.6c0.1-1.1,0.4-2.2,0.5-3.1c1.3-0.1,2.8-0.3,5.1-0.5
			c-1.8-1.4-2.7-2.2-3.1-2.5C27,75.2,29.5,70,37.9,68.2c-3.3-0.4-5.1-0.7-6.9-0.9c0.4-0.2,0.8-0.4,1.3-0.7c-0.5-0.9-0.9-1.9-1.4-2.8
			c1.6-0.5,3.2-1,5.7-1.7c-1.6-1.4-2.8-2.4-4-3.5c1-0.1,2.1-0.2,3.1-0.3c-0.3-0.3-0.5-0.5-0.8-0.8c1-1.3,2-2.6,3.6-4.7
			c1.9,0,5.3-0.1,4.8-4.9c1.3-0.1,2.6-0.2,3.7-0.3c-0.3-1-0.5-1.6-0.7-2.5c1.9,0.2,3.3,0.4,4.1,0.5c-0.2-1.8-0.4-3.3-0.6-4.9
			c2.8,0.9,5.3,1.7,8.5,2.7c-1.3-1.6-2.2-2.5-3.5-4.1c4.2,0.6,5.4-1.4,4.8-5.7c4.6,4.1,4-1.5,6.1-2.1c0.8,1,1.6,1.9,2.3,2.8
			c0.2-0.1,0.4-0.2,0.5-0.2c-0.4-1.2-0.7-2.4-1.1-3.5c2.7,0.3,5.1,0.6,7.5,0.9c-0.3-2.1-0.5-4.2-0.8-6.3c1.5,1.1,1.8,2.5,2.3,3.7
			c0.5,1.1,1.2,2.2,1.8,3.2c0.2-0.1,0.5-0.3,0.7-0.4c-0.6-2.2-1.3-4.4-1.9-6.3c4.3,1,4.8-1.6,5.4-4.5c0.7,1.2,1.3,2.2,3,5
			c2.3-1.6,4-2.9,5.7-4.1c-1.2-1-1.2-1,6.4-7.2c0.5,0.4,1,0.9,1.1,0.9c1.9-1.3,3.6-2.4,5.8-3.8c-0.3,2-0.4,3-0.7,4.8
			c1.4-1.7,2.2-2.7,3.4-4.2c-0.3,1.6-0.5,2.6-0.8,4c3.4-2.5,6.3-4.7,9.4-7c-0.4,2.2-0.7,4-1.2,7c5.1-6,5.1-6,7.3-3.3
			c3-3.2,3.4-3.2,6.3-0.7c4.3-1,8.2-2.2,12.2-2.7c3.8-0.4,7.6-0.1,11.4-0.1c-0.5,1-1.1,2.2-1.1,2.1c4.6-0.4,9.5-1.1,14.4-1.3
			c5-0.2,10.1-0.1,15.1-0.1c-0.3,0.5-0.6,1.1-1,2c2.6-0.8,4.8-1.5,8.2-2.5c-1.4,1.9-1.8,2.5-2.5,3.4c2-0.3,3.6-0.5,5.2-0.7
			c-0.4,0.7-1,0.9-1.5,1.2c0,0,0,0.2,0.1,0.8c9.5-1.4,17.3,1.8,23.3,8.4c2.9-0.1,5.6-0.3,9-0.5c-1,1.7-1.3,2.3-1.8,3.2
			c1.3,0.2,2.4,0.4,4.8,0.7c-3.2,1.2-5.2,1.9-8.2,3.1c3.7-0.2,6.2-0.4,9.4-0.6c-0.8,1.5-1.2,2.4-1.9,3.7c8.6-1.2,4.3,6.2,6.9,9.3
			c-1.6,0.5-3.1,0.9-5,1.5c4,4.8,7.6,9.3,11.3,13.8c8.8,10.5,15.7,22.1,17.6,35.8c1.8,13.2,2.6,26.5,3.8,39.7c0.4,4.5,2.1,7.8,7,9.5
			c6.3,2.1,12.6,4.7,18.5,7.9c5.3,2.9,6.4,6.7,4.2,12.3c-4.5,11-9.1,22-14.1,32.8c-3.7,8-8.7,14.8-19.2,13.6
			c2,10.2-1.6,19.2-3.9,28.4c-1,3.9-2.6,7.9-2.2,11.7c0.5,6.3,1.3,12.1-3.5,17.2c-2.2,2.3-2.6,4.8-1.7,8.1
			c1.6,6.2,0.4,12.1-3.1,17.5c-1.8,2.8-3.8,5.5-5.3,8.4c-3,5.9-6.3,11.7-8.5,17.9c-2.2,5.9-7.6,8.7-10.9,13.4c-1.4,2-3,3.9-4.8,6.3
			c-0.4-1.5-0.6-2.3-0.9-3.4c-1.3,3-3.9,4.6-5.4,7.4c-3,5.4-7.7,5.1-9.7,0.5c-0.4,1-0.7,2.8-1.2,2.9c-5.9,1-12,3.5-16.7-3
			c-1-1.3-3.2-1.8-5.9-3.2c0.9,2.3,1.2,3.1,1.5,4c-6.7,0-7.5-6.8-12.1-10.3c0.9,2.8,1.5,4.8,2.1,6.8c-0.3,0.1-0.5,0.2-0.8,0.2
			c-2.4-4-4.7-8-7.1-12c-0.2,0.1-0.4,0.2-0.6,0.3c0.4,2,0.9,4,1.3,6c-0.3,0.1-0.6,0.1-0.9,0.2c-0.9-1-1.7-2-2.9-3.4
			c0,1.4,0,2.2,0,4.1c-1.6-2.4-2.7-4-4-6c-0.1,1.5-0.1,2.6-0.2,3.7c-0.4,0.2-0.8,0.5-1.2,0.7c-2.3-3.8-4.6-7.6-7.7-12.7
			c1,3.3,1.5,5.4,2.1,7.4C140.1,327.5,139.7,327.8,139.4,328.1z M204.5,270.6c9.9,2.4,18.9,2.3,23.6-10.4c0.3,4.7,0.8,8.1,0.6,11.5
			c-0.2,3.5-1.2,7-1.8,10.5c-0.5,2.7-1.2,5.1-3.7,4.9c-2.3,3.8-4.9,7.4-6.6,11.3c-1,2.3-0.7,5.2-0.9,6.9c2.1-0.7,4-1.4,6-2.1
			c0.2,0.4,0.4,0.8,0.6,1.2c0.5-1.7,1-3.3,1.6-5.3c0.4,0.8,0.7,1.2,1.6,3.1c-0.3-12.6,8.3-19.8,12.8-28.6c-0.1-0.1,0.2,0.5,0.4,1.1
			c1.5-5.3,0.8-4.7-2.6-9.2c-2.7-3.6-3.5-8.6-5.3-13.2c0,0-0.7,0.1-1.7,0.2c0.2-1.7,0.4-3.2,0.6-4.7c-4.1,1.5-6.5,0.1-7.7-4.7
			c-0.4,1.1-0.6,1.9-0.9,2.6c-2.9-2.6-4.7-2.1-6.8,2.1c-2.6-3.3-5.2-3.4-7.5,0.8c-0.7-1.7-1.2-3-1.7-4.2c0,0.5,0,1,0,1.5
			c-2.3,0.4-4.7,0.7-7,1.4c-1.4,0.4-2.6,1.2-3.9,1.8c1.2,0.8,2.3,2.1,3.5,2.2c10.5,1.3,21.1,2.4,31.6,3.5c-15.6,6.9-30,1.4-44.3-5.2
			c0.1,0.6,0.2,1.1,0.4,1.7c-1.7,0.8-3.3,1.7-5,2.3c-1.4,0.5-3.1,0.4-4.4,1c-0.4,0.2-0.6,2.1-0.2,2.5c1.6,1.7,3.5,3.1,5.3,4.6
			c-1.8-0.9-3.7-1.5-5.4-2.7c-4.2-2.9-8.1-2.3-12.1,2.6c-0.5-0.9-0.9-1.7-1.4-2.4c-2.6,2.3-5.1,4.6-8.3,7.4
			c-1.2-10.7-3.7-20.9,5.1-28.7c2.7-2.4,5.3-6.5,10.6-5.3c1.8,0.4,4.1-1.7,6.3-2.3c6.3-1.6,12.7-3,19-4.6c1.5-0.4,2.8-1.5,4.3-1.7
			c1.2-0.2,2.6,0.3,4.9,0.7c3.8-4.8,10.2-0.8,15.9-2c1.3-4.8,5.1-6.5,10.8-7.7c-3.9,2.7-6.7,4.6-10.5,7.2c2.8,0.8,3.2,2.1,5.8,0.3
			c3.6-2.4,7.2,1.8,9.7,4.4c3.2,3.3,5.4,7.6,8,11.5c0.7,1,1.3,2,3.3,2.9c1.9-8.5,4.2-16.9,5.6-25.4c1.2-7.3,0.6-7.7-6.3-10.6
			c-1.1-0.5-2.3-1-4.1-1.9c0.2,9.2-3.2,15.6-12.9,17c2.7-1.8,5.4-3.5,8.7-5.7c-1.7-0.4-2.5-0.6-3.4-0.8c6-5.4,8-11.7,3.7-18.4
			c-6.4-9.8-7.9-20.8-10.3-31.7c-0.3-1.5-0.7-3.1-1.4-4.5c-1.9-3.7-5.8-4.1-8.3-0.7c-2.2,3-4.3,6.3-5.6,9.8
			c-7,18.4-28.6,31-51.5,21.8c-8-3.2-15.9-6.4-19-14.6c-2.4-6.4-2.6-13.7-3.6-20.7c-0.7-5.1-0.7-10.4-1.7-15.4
			c-1.6-7.9-4.4-9.7-12.3-8.4c-11.3,1.8-22.5,4.2-33.8,5.7c-4.8,0.6-7,3.4-8.1,7.2c-1.4,4.8-2.1,9.7-2.7,14.7c-0.6,4.6-1,9.3-1.1,14
			c-0.1,4.6,0.4,9.2,0.3,13.8c-0.1,4.9-0.4,9.8-0.7,14.1c0.3-0.3,1.2-1.4,2.2-2.7c0,4,0,7.7,0,11.5c0,4.2-0.6,8.5,2.2,12.2
			c0.3,0.4-0.4,1.7-0.9,2.5c-0.9,1.6-1.9,3.2-2.3,5.3c0.9-0.8,1.9-1.6,2.8-2.3c0.7,1.2,1.4,2.3,2.1,3.4c-0.8,1.7-1.7,3.3-2.5,4.9
			c0.2,0.1,0.4,0.3,0.6,0.4c0.9-0.7,1.8-1.4,3.1-2.5c0,2.4,0,4.4,0,6.8c1.1-0.6,2.2-1.2,2-1.1c2.5,0.8,4.2,1.4,5.1,1.6
			c-2,2.8-4.1,5.8-6.2,8.8c0.4,0.3,0.8,0.5,1.2,0.8c1.4-2.3,2.9-4.6,4.3-6.9c0.4,0.1,0.7,0.2,1.1,0.2c-0.3,2.3-0.5,4.6-0.8,7.1
			c2-0.2,4-0.5,5.1-0.6c0.9,3,1.7,5.7,2.7,8.9c1-0.3,2.1-0.7,3.3-1c-0.3,1.3-0.6,2.5-1,4.3c1-1.3,1.6-2,3-3.7
			c-1.2,5.8-2.3,10.6-3.3,15.4c0.2,0,0.3,0,0.5,0.1c1.4-4,2.7-7.9,4.1-11.9c0.5,0.1,1,0.3,1.5,0.4c0,1.2,0,2.4,0,3.6
			c0.5,0.4,1,0.8,1.6,1.2c0.6-1.3,1.2-2.7,2.3-4.9c0.6,6.5,2.7,1.5,4.4,1.7c-0.3,1.1-0.6,2.1-1,3.7c1.4-0.5,2.2-0.8,4.5-1.7
			c-0.4,4-0.8,7.2-1.1,10.3c1.2-1.9,2.5-3.9,3.7-5.9c0.5,0.2,1.1,0.5,1.6,0.7c-0.5,4.4-1.1,8.8-1.6,13.1c0.2,0,0.4,0.1,0.5,0.1
			c0.6-3.1,1.3-6.2,1.9-9.4c0.3,0,0.5,0,0.8,0c0.2,1,0.4,2.1,0.7,3.6c1.5-1.8,2.8-3.5,4.6-5.6c0.3,2.4,0.6,4.1,1,7.2
			c1.7-9.5,11.5-2.3,14.4-8.7c-0.7,1.5-1.4,3-2.1,4.7c2-0.1,4.2-0.9,5.4-0.1c1.1,0.7,1.1,3.2,1.5,4.3c3.1-0.3,6.6-0.5,9.8-0.8
			c0,5.8,0,11.1,0,17.4c0.9-1.6,1.4-2.6,2.6-4.8c0.6,3.9,1.1,6.7,1.6,9.5c0.1,0,0.2,0,0.3,0c0-1.1,0-2.3,0-3.4
			c0.4-0.2,0.8-0.4,1.1-0.5c2.1,3.4,4.2,6.7,6.9,11c0.3-2,0.4-2.9,0.7-4.9c1.4,2.3,2.3,3.8,3.2,5.3c1.1-0.5,2.4-1.1,4-1.9
			c0.2,1.3,0.4,2.6,0.5,3.7c1.2-1.6,2.5-3.3,3.9-5.1c0.4,0.2,0.7,0.4,1.1,0.5c0,2.3,0,4.7,0,7c2.3-2.7,0.2-7.7,5.9-8.5
			c0.1,2.1,0.2,4,0.3,5.5c2.1-2.3,4.4-4.7,6.7-7.2c2-2.2,2.1-3.8-0.2-6.3c-2.9-3.3-4.9-7.5-6.8-10.5c-1.5-0.3-3.5-0.5-3.6-0.8
			c-0.9-6.4-4.6-12.5-2.1-19.2C193.3,267.8,198.9,269.2,204.5,270.6z M103.5,50.4c-0.9,7.2-1.8,14.1-2.7,21
			c-0.5,3.7-1.1,7.3-1.8,11.9c-0.9-2.4-1.5-4-1.6-4.4c-1.9,7.4-3.7,15.8-6.2,24.1c-1.4,4.7-3.9,9.1-6.3,14.4
			c11.8-1.1,22.1-2,32.3-2.9c2.7-0.2,5.3-0.6,8-0.6c8.8,0,17.2-1.5,25.4-4.9c7.7-3.2,14.4-4,24.1-2c-0.8,0.3-1.6,0.6-1.8,0.7
			c10.8,3.5,22.6,4.9,33.1,11.9c-0.8-1.3-1.4-2.3-2-3.3c0.2-0.2,0.3-0.4,0.5-0.6c2,1.7,4.1,3.2,5.9,5c1.5,1.6,2.7,3.5,3.6,4.7
			c0-0.1,0.2-1.5,0.3-3c0.2,0,0.5,0.1,0.7,0.1c0,1.5,0.1,3,0,4.6c-0.1,1.5-0.3,2.9,0.5,4.7c2-5.3,4.1-10.6,6.1-15.9
			c0.4,0.1,0.7,0.2,1.1,0.3c-1.5,5.6-3,11.2-4.6,17.1c4.3,0.8,7.9,1.4,12,2.2c0-5.8,0-11.3,0-16.9c0.4,0,0.7-0.1,1.1-0.1
			c0.5,6.1,1,12.3,1.5,18.4c5.9-9.3,13.6-10.4,23.3-5.6c-1.8-18.8-1.4-37.2-9.2-54.1c-2.8-6-6.9-11.5-10.9-16.9
			c-3.4-4.7-7.4-8.9-11.2-13.2c-3-3.4-5.6-7.3-9.2-9.7c-4.3-2.8-9.5-4.3-14.3-6.3c-1.2-0.5-3.1-0.8-3.5-1.7c-1.8-3.6-5.8-4.6-8.5-5
			c-7.8-1.1-15.4-2.1-22.4-5.9c-5.5-3-11.2-0.5-16.7,0.4c-6.9,1.1-13.8,2.7-20.6,4.5c-1.8,0.5-3.3,2.3-4.9,3.5
			c-4.2,3.1-8.4,6.2-12.5,9.3c0-0.5,0-1.3,0-3.1c-2,7.4-11.7,11.2-6.6,20.2C104.8,52.3,104.3,51.6,103.5,50.4z M60.8,253.1
			c-0.6-5.8-1.1-10.3-1.5-14.8c-0.1-1.2-0.6-2.5-0.3-3.7c2.4-9.6,5-19.3,7.5-28.9c0.2-0.9,0.5-1.8,0.6-2.8c0.1-7.7,0.4-15.4,0-23
			c-0.3-6.9-1-13.9-2.2-20.7c-0.8-4.4-2.8-8.6-4.5-12.8c-1.3-3.3-3.7-5.3-7.2-6.8c-5.3-2.2-10-5.7-15.1-8.5
			c-6.4-3.5-9.2-2.9-14.5,2.5c-6.4,6.6-7.9,15-7.7,23.5c0.2,6.4,1.5,13.1,3.9,19.1c4.5,11.3,10.1,22.1,15.5,33
			c3.5,7.1,9.8,10.1,17.5,11.2C52.3,231.6,50.6,243.1,60.8,253.1z"/>
		<path class="st0" d="M205.7,189.2c-7-2.3-15.2,5.2-17,12c-2.2,8.2,0.1,11.6,11.6,15.5c-1.9-1.2-3.8-2.6-5.8-3.6
			c-3.5-1.9-4.7-4.6-4.2-8.5C191.2,196.8,196.5,191.2,205.7,189.2z"/>
		<path class="st0" d="M173.4,214.4c-3.1,4.1-6.1,8.3-9.2,12.4c0.4,0.3,0.7,0.5,1.1,0.8c3.1-4.1,6.2-8.3,9.2-12.4
			C174.2,214.9,173.8,214.7,173.4,214.4z"/>
		<path class="st0" d="M18.6,163.3c0.5-4.8,0.9-9.6,1.6-14.4c0.3-2.1,1.3-4.2,2.3-6.1c2.1-4.2,5.3-7.5,10.2-6.9
			c5,0.6,9.9,2.5,12.2,7.6c2.1,4.5,3.7,9.3,5.7,14.4c-6.8,3.8-13.4,7.5-20,11.2c0.3,0.6,0.6,1.1,0.9,1.7c6.4-3.2,12.8-6.5,19.1-9.7
			c1.9,6,1.1,7-5.9,7.6c-2.6,0.2-5.2,1.8-7.7,2.8c0.1,0.4,0.3,0.8,0.4,1.2c3.9-0.7,7.9-1.4,11.8-2.1c0.5,4.3,1.1,8.6,1.6,12.8
			c-6.1-2.4-12.2-4.9-18.3-7.3c-0.2,0.6-0.4,1.1-0.7,1.7c6.4,3,12.7,6.2,19.2,8.9c3.6,1.5,5.6,3,5,7.4c-0.9,6.6-1.1,13.4-1.6,20.3
			c5.1-8.1,5.1-22.8,0.2-30.7c-3.2-5.1-2.6-12.7,1.3-17.5c1.2-1.5,2-3.3,2.2-5.5c-1.4,1.3-2.8,2.6-4.1,3.7
			c-1.8-6.6-3.3-13.1-5.3-19.4c-2.2-7.2-9.2-12.4-16-12.3c-6,0.1-12.6,5.7-14.1,13.2c-1.1,5.6-0.9,11.5-1.3,17.3
			C17.6,163.3,18.1,163.3,18.6,163.3z"/>
		<path class="st0" d="M31.6,186.7c-1.9-4.2-4.6-8.4-5.7-12.9c-1.7-7.4,3-13.8,5.1-20.6c0.3-1,3.7-1.3,5.8-1.5
			c1.8-0.2,3.7,0.2,5.5,0.3c0-0.5,0.1-0.9,0.1-1.4c-2.7-0.4-5.4-0.9-8.1-1.1c-5.5-0.3-7.2,1.4-7.7,6.9c-0.2,2.3-0.6,4.7-1.5,6.8
			C21,173.1,23.1,180.7,31.6,186.7z"/>
		<path class="st0" d="M36.9,206.8c4.1-3.9,7.8-7.5,12-11.4C37.9,199.9,37.8,200,36.9,206.8z"/>
	</g>
</g>
</svg>
