<?xml version="1.0" encoding="utf-8"?>
<!-- Generator: Adobe Illustrator 20.0.0, SVG Export Plug-In . SVG Version: 6.00 Build 0)  -->
<svg version="1.1" xmlns="http://www.w3.org/2000/svg" xmlns:xlink="http://www.w3.org/1999/xlink" x="0px" y="0px"
	 viewBox="0 0 232.3 335.3" style="enable-background:new 0 0 232.3 335.3;" xml:space="preserve">
<style type="text/css">
	.st0{display:none;}
	.st1{fill:#3C3C3B;}
	.st2{fill:#FEFEFE;}
</style>
<g id="Layer_1" class="st0">
	
		<image style="display:inline;overflow:visible;" width="500" height="500" xlink:href="37735A09.jpg"  transform="matrix(1 0 0 1 -100 -75)">
	</image>
</g>
<g id="Layer_2">
	<path class="st1" d="M6.2,171.9c1.5,1.4-0.5,5,3.2,5.1c0.1,0,0.2,0.2,0.3,0.2c4.3-1.2,4,1.2,2.6,5.2c3.9-3.7,1.7-7,1.9-10.1
		c1.5,0.9,1.5,0.8,3.2,3.6c0.8,1.3,1-0.1,1.3-0.3c1.5-0.6,2.9-1.5,4.7-1.4c2.3,0.2,5.1,4,4.8,6.8c-0.2,2.5,1,4.7,1.8,6.9
		c0.3,0.7,0.5,2.5,2.2,2.1c1.5-0.3,1.6-1.4,1.9-2.5c2,0.1,3.8,0.5,5.4,2.2c-3.7,2.2-7.4,4.3-11,6.7c-2.1,1.4-5,2.8-4.6,5.7
		c0.4,3.1,3.1,5.3,6.2,6.1c3.1,0.8,5.5,2.1,7.1,4.8c0.6,1,1.6,1.1,2.3,1.8c1.2,1.2,3.2,1,4.4,0.3c1-0.6,0.5-2.3,0.2-3.6
		c-1.8-0.2-0.4,2.8-2,1.9c-1.9-1-3.8-2.3-5.3-3.8c-0.5-0.5,0.9-1.9,1.7-2c2.4-0.1,1.8-1.7,1.8-3c0-0.6,0.3-1.4-0.4-1.8
		c-0.9-0.4-1.6,0.4-1.8,1c-0.7,1.7-1.8,3.3-3.4,3.4c-1.8,0.1-3.7-0.7-4.7-2.5c-1.2-2.3,1.1-2.3,2.2-3.1c1.5-1.1,2.2-3,5.1-2
		c2.9,1.1,5.6-2,5.9-4c0.4-3,2.5-2.7,3.9-3.2c1.8-0.7,1.2,1.6,1.6,2.4c3.8,8,3.5,16.3,1.2,24.7c-0.6,2.2-1.2,4.4,1.7,6.1
		c1.6,0.9,2.7,3.4,1.2,6c-1.7,2.9-0.9,6.5-1.2,9.7c-0.3,3.5-2.7,5.4-4,8.1c-0.3,0.7-0.6,1.8,0.3,2c1.6,0.4,0.7-1.3,1.3-2
		c1,1.6,1.2,2.6-0.8,3.7c-3.7,2-2,5.4-1,7.8c3.8,9.3,6.5,19,11.5,27.8c0.7,1.2,0.6,2.7,0.9,4.1c2.3,1.8,4.2,4.5,5.1,7.8
		c2.9,1.8,5.9,3.3,8.7,5.2c1.3,0.8,2.5,1.7,3.7,2.6c3.9,1.4,7.7,3.2,11,5.7c2.7,2.1,5.2,4.1,7,7.2c0.7,1.2,1.3,2.6,1.8,3.9
		c0.7,0.2,1.3,0.5,1.9,0.7c2.7,0.8,5.3,1.6,8,2.2c1.4,0.3,2.7,0.6,4.1,0.9c0.3,0.1,0.5,0.1,0.6,0.1c0.3,0,0.6,0,1.1,0
		c5.1,0.1,10,0.1,14.6,0.7c2.1-1.1,4.3-1.7,6.4-1.7c-0.1-0.4-0.2-0.8-0.5-1.1c-1.3-1.3-0.1-2.3,0.3-3.1c0.5-0.9,1.5-0.6,2.4,0
		c1.5,1.1,4.7-2.5,5.1,1.8c2-2.3,5.2-1.2,7.5-2.7c0.5-0.3,0.9-1.8,1.6-0.6c1.9,2.9,3.8,0.9,5.5,0.1c3.8-1.8,7.2-4.1,9.4-7.9
		c0.2-0.3,0.7-0.6,0.6-0.8c-0.8-2.6,1.8-4.8,0.9-7.5c-0.3-1,0.8-1.5,1.3-0.7c0.6,0.9,0.8,1.9,1.7,0.5c0.4-0.7,1.5-1.5,0.3-2.7
		c-2.3-2.5-1.3-3.8,1.9-3.9c1.6,0,2-0.6,1.1-2.3c-1.4-2.6-1.2-2.7,1.5-3.2c1-0.2,1-1,0.7-1.4c-1-1.7-0.5-3.8-1.9-5.4
		c-2.1,0.3-0.5,3.8-3.1,3.6c-0.6-0.9,1.6-2.6-0.5-2.9c-1.4-0.2-1.1,1.8-1.7,2.5c-1.1,1.2-0.4,4-3.3,3.8c-1.3-0.1,2,3-1.3,2.3
		c-1-0.2-1.6,3.1-2.5,0.7c-0.4-1-1.4-3.9,0.7-4.7c3.1-1.3,4.9-2.1,1.4-5.1c-0.5-0.4,1-3.2,1.6-5.1h-11.3c4.4-4.8,11.6-3.2,16-7.7
		c1.3,0.9-1.1,1.6-0.2,2.6c2-0.5,3.9-1.1,4.4-3.4c0.4-1.7,1.5-0.9,2.4-1c0.5,2.9-1.8,5.2-2,7.9c-0.1,0.9-0.4,1.8-0.3,2.7
		c0.1,1.1,0.4,2.5,1.6,2.6c1,0.1,1.7-1.1,2.2-2c1.7-3.2,2-7,3.9-10.2c0.4-0.7,0.2-1.8-0.7-2.9c-1.6-2-1.5-5.7-3.3-7
		c-2-1.4-1.3-3.7-3.1-4.9c-1.5-1-1.1-2.3,1.4-2.5c-2.5-1.4-4.1-3-5.7-4.7c-1.7-1.8-3.7-2.1-6.3-1.9c-2.6,0.2-5.3-0.6-7.8-1.3
		c-0.9-0.3-1.7-0.4-2.6-0.4l0.1-0.1c-3.8,1.8-7.5,4-11.9,4.1c-2,0-4.1,0.7-4.7,2.9c-1.1,4-5,1.7-7.2,3.3c-0.7,0.5-1.8-0.3-2.6,1.1
		c-0.8,1.5-2.4,2.2-4.5,1.4c-2.1-0.7-3.8,0.2-5,2.5c-1.4,2.8-4.8,4.6-5.3,8c-0.4,2.5-1.5,4.7-2.4,7c-0.7,1.9-1.4,1.7-2.4,0.6
		c-1.6,0.4-2,1.9-3.3,2.9c5-1.6,4.2,2.8,5.6,4.9c0.3-0.5,1.2-0.6,1.7-0.3c1.2,0.6,1.6,0.5,2.4-1.1c2.3-4.4,4-4.4,7.3-0.5
		c0.3,0.3,0.9,0.4,1.4,0.3c5.8-0.2,6.8,5.4,9.9,8.4c0.7,0.7,1.7,1.7,2.1,2.7c0.8,1.7,1.2,3.2-1.6,3.9c-1.2,0.3-3-0.3-4.1,1.5
		c-1.1,1.9-2.2-1.8-3.7-0.6c-1.1-1.9-3.2-0.6-4.8-1.2c-2.1-0.8-0.2-2.3-1.2-2.6c-1.3-0.7-1.6,0.6-2.3,1c-0.8,0.4-0.7,0-1.2-0.6
		c-1.4-1.7-3-2.6,0.4-3.6c0.2-0.1,0-1.1,0-1.8c-0.8-0.1-1.8,0.2-1.3-1.4c0.4-1.4,0-1.6-1.7-1c-0.2,1-1.8,0.7-1.8,2.1
		c0,0.4-0.7,1.2-1.5,1c-1.1-0.3-0.8-1.4-0.5-1.9c1-1.3-0.5-1.4-0.8-1.4c-3.7,1-5.2-3.9-8.9-3.1c-1.2,0.3-0.7-1.1-0.8-1.8
		c-1.1-4.5,1.8-7.7,3.8-11.4c-1.2-0.1-2.4-0.1-3.4-0.2c-0.2-0.2-0.3-0.3-0.3-0.4c2.3-1.2-0.2-3,0.5-4.4c0.9-2-0.1-3.7-0.9-5.1
		c-1.7-3.2-4.6-6-3.1-10.1c-3-1.5-3.6-5.1-6.3-6.7c-1.7-1-2.9-2.4-4.1-3.6c-0.8-0.9-1.3-1.5-2.4-0.9c-0.6,0.3-1.1,0.8-1.7,0.2
		c-5.1-5-8.6-11.1-12-17.2c-1.4-2.5-2.4-5.2-3.8-7.7c-2.3-4-2.7-8.5-1.1-13.1c1.1-3.1,2.7-6,4.2-8.8c2.5-4.7,6.3-1.9,9.5-1.6
		c3,0.2,5.9,1.4,8.8,2.2c0.4,0.1,1,0.1,1.1,0.3c1.1,3,5.2,3.6,5.1,8c-0.1,5.3,1,10.7,2.3,15.9c1,4.5,4.7,7,8.9,8.2
		c12.3,3.5,24,4.1,36.1-2.2c5.6-2.9,6.8-7.8,10.2-11.5c1.3-1.4,2-3.3,3.2-4.8c3.6-4.4,8.7-3.3,11.1,1.9c1.8,4,2.4,8.2,4.1,12.2
		c1.1-0.5,0.1-1.7,0.9-2.6c3.5,4.9,8,8.2,14.1,8.6c6,0.4,11.6-1.2,17.4-2.9c10.2-3,12.8-11.8,16.3-20c1.8-4.4,2.2-9.3,6.8-12.4
		c1.4-0.9,1.5-4.2,1.8-6.4c0.2-1.2-0.9-1.7-2.1-1.8c-3.5-0.3-6.9-0.9-10.5-0.8c-6.2,0.2-12.3,0-18.5-0.3c6.3-1.9,12.8-1.4,19.3-0.8
		c1,0.1,2,0.2,3,0.3c1,0.1,2-0.1,2.2-1.1c0.1-0.5-0.8-1.3-1.3-1.8c-4.6-3.6-9.3-7.1-15-9c-0.9-0.3-1.8-1.4-2.8-0.5
		c-0.8,0.8-0.1,1.6,0.3,2.5c0.3,0.8,0.3,1.8,0.5,2.6c0.2,1.6,2.3,3.4,0.9,4.5c-1.2,1-2.6-1.1-3.7-1.9c-1.7-1.1-3.1-0.2-4.3,0.1
		c-5.9,1.5-11.9,1.9-17.8,3c-4.3,0.8-8.6,1.5-13,1.8c-2.7,0.2-5,0.3-7-1.7c-2.3-2.3-4.6,0.3-6.9,0.5c-5.6,0.4-10.9-0.8-16.4-1.6
		c-7-1.1-13.6-3.7-20.7-3.8c-1,0-2.3-0.2-3,0.4c-3.3,2.5-7.7,2.6-11.1,4.5c-2.7,1.5-5.1,3.5-8.4,3.1c0.1,0.9,1.6,0.8,1.2,1.8
		c-0.3,0.8-1.2,0.7-1.7,0.5c-3.8-1.6-7.7-3.4-11.3-5.3c-1.5-0.8-3.4-2.6-5.4-3.6c-1.9-3-1.6-5.8,1.5-7.4c2-1,2.7-3.6,5.4-3.6
		c0.8,0,0.5-1,0.5-1.6c0.1-0.8-0.2-2.1,0.1-2.3c2.7-1.2,1.5-3.4,1.5-5.3c0.1-1.7,1.9-4-0.5-4.7c-1.7-0.5-2.7-2.8-5.4-1.5
		c3.9-3.7,3.4-8.9-0.5-10.1c0.6-0.6,1-1.2,1.6-1.8c0.6-0.6,1.1-1.1,0.3-1.9c-0.6-0.6-1-0.8-2-0.3c-3,1.6-6.6,0.6-9.7,1.8
		c-0.7,0.3-1.3,0-1.6-0.7c-0.5-1.1,0.5-1.2,1.1-1.5c1.5-1.1,3.5-1.4,4.8-0.7c1.6,0.9,2.7-0.4,4-0.1c1.6,0.3,1.8-0.9,2-1.8
		c0.1-0.3-1.5-1.4-1.8-1.3c-2.9,1.5-2.4-2.2-4.2-2.7c-0.9-0.2,1-0.4,1-1.1c2.5,0.3,3.9-1.5,3.1-3.3c-0.7-1.4-2-3.7-4.7-3.3
		c-1.2,0.2-2.5,0-3.8-0.2c2.2-0.8,3.8-3,6.9-1.7c1.5,0.6,4.2-1.3,6.1-2.5c4.7-2.8,8.8-2.7,13.5,0.5c3.7,2.6,8.3,5,12.6,4.6
		c6.2-0.6,10.9,3.7,16.7,3.6c1.3,0,2.3,0.3,3.6-0.4c4.5-2.3,9.2-2.5,13.9-1.1c1.4,0.4,2.2-0.1,3-1c0.4-0.5,0.6-1.5,1-1.5
		c2.3-0.3,3.9,3,7,0.6c2.4-1.9,3.8,1.4,5.6,2.8c1.3,1,3.3,3.5,5.9,1.1c1-0.9,2.4-1.5,4.1-1.6c2.3-0.1,4.4-2,6.6-3.1
		c1.3-0.6,2.8-1.9,3.7,0.5c0.6,1.8,2.3,1,3.3,1.2c4.2,0.9,8.3-0.5,12.1-2c2-0.8,2.9-2.6,2.1-5.1c-0.4-1.3,1.1-2.4,2.4-2.6
		c1.4-0.2,2.5-1.2,2.9-2.1c0.4-1,0.7-2.6-0.4-3.7c-1.4-1.2-1.6,1.2-2.9,1c-0.5-0.1-0.9,1-2.4,0.2c2.4-1.8,2.2-4.8,3.8-7.5
		c-0.2-0.5-1-0.6-1.9-0.8c-1.7-0.5-1.2-0.6-0.8-2.5c0.2-0.8,1.2-3.4-1.4-4c-0.3-0.1-1.9-1-0.1-1.3c1.3-0.2,1.6-0.9,1.3-1.8
		c-0.4-1.2-1.6-0.6-2.4-0.6c-1,0-1.4,1.6-2.7,1.5c-0.5-1.4-0.9-2.8-1.5-4.4c-1.5,2,1.2,3.8,0.1,5.7c-1.4-0.2-2.9-0.9-3.3-2.1
		c-1.5-4.1-3.3-1.6-4.2-0.1c-1.1,1.7-2,0.7-2.2,0c-0.7-3.5-3.1-6.6-3.8-9.8c-0.9-4-3.9-6.5-4.8-9.6c-1.3-4.5-4.9-4.5-7.3-6.8
		c-2.9-2.8-6.9-3.5-10.4-5.3c-0.7-0.3-1.3-0.7-1.5-1.4c-4.7-0.5-5.3-0.8-7.9-4.2c0,2.2-0.6,2.5-2.7,1.7c-2.4-1-4.7-2.5-7.5-2.5
		c-0.3,0-0.7,0.2-1,0.3c0.1,2.4,2.6,2.4,4.1,4.5c-2.7-0.4-4.8,0.9-6.6-1.9c-0.7-1-3.3-1.7-4.6-1.2c-2.3,0.9-4.3,0.3-6.4-0.1
		c-0.4-0.1-1.1,0.1-1.4,0.4c-0.3,0.4-0.1,0.8,0.5,1.2c3.9,2.6,7.7,5.3,11.9,8.2c0.1-2.6-3.3-2.4-2.8-4.9c3.1,2,6.3,3.7,9.1,6
		c0.9,0.8,1.3,1.5,0.9,2.1c-0.5,0.8-1.8,0.6-2.5,0.3c-3.3-1.5-6.2-4.1-10.1-3.8c-0.4-3.5-4.1-1.3-5.4-3.2c-0.1-0.2-0.2-0.3-0.3-0.5
		c-0.9-0.9-2-1.5-3.5-2c1,0,1.7,0.7,2.5,0.5c0.1-0.1,0.3-0.2,0.4-0.3c-0.5-1.9-2.6-1.7-3.7-2.9c0.8-0.4,1.8-0.6,2-1.8
		c-2.1,0-4-0.7-5.9-1.7c-1.9-1-4.2,0-6.2,0.3c-4,0.6-7.6-1.8-8-5.8c0-0.5,0.1-0.6,0.4-0.7c5.1-2.9,3.9-7.9,4.1-12.4
		c0.2-3.8,0.2-7.5-2.7-10.6c-0.7-0.8,0.4-0.9,0.5-1.4c1-2.7,3.1-4.8,3.3-8c0.1-2.1,1.1-4.2-1.9-5c-0.7-0.2-0.7-0.2-2,3.6
		c0,0,0,0,0.1,0C95,19,93.4,19.5,91,17.5c-2.2-1.9-4.6-2.8-7.7-1.5c-1.6,0.7-4,0.6-2.9-2.9c0.3-1-0.1-3.7-2.9-4.3
		c1.1,2.6-1.6,5.1,0.5,7.6c-1.3,0.3-2,1.6-3.1,2c-1.5,0.6-1.9-1.1-3.2-2.6c0.8,3.9-2.1,5.7-2.6,8.8c-0.5,2.9-6,2.2-8.4-1
		c-1.9-2.4-3.7-4.9-5.7-7.3c-0.8-1-1.6-2.2-3.3-1.6c0.1,1.4,1,2.4,2,3.3c2.2,2.3,4.9,4.3,5.9,7.5c0.4,1.2,1.5,2,0.6,3.8
		c-1,2-2.6,1.8-4,2.2c-1.6,0.5-3.5-1-4.6,1.8c-0.7,1.8-3.2-0.5-4.9-0.1c-0.6,1.2,1.1,0.8,1.2,1.7c-2.2,0.8-4.7-0.1-6.2-0.9
		c-6.2-3-11.8-0.5-17.5,1.1c-1.3,0.4-2.6,1-3.9,1.5c-0.6,0.3-1.9-0.9-1.6,0.9c0.3,1.7,1.3,0.8,2.1,0.7c0.4-0.1,0.8,0.1,1.6,0.3
		c-3.1,2.4-5.6,5.3-8.7,6.7c-5.3,2.4-5.9,7.2-7.4,11.6c-0.4,1-0.5,2.2-0.3,3.5c2.3-6,5.8-11.1,11.4-15.6c-1.5,4-2.7,7.2-4.1,10.9
		c3.6-2,4.1-5.8,6.2-8.4c2.5-2.9,5.2-5.1,8.6-5.7c3.5-0.6,6.4-3.1,10-3.1c0.6,1.1,2.6,0.2,2.8,2c-3.8,0.3-0.4,5.1-3.9,5.8
		c1.9,1.5,2.6-0.5,3.8-0.7c0.6,3.4-0.6,7,0.9,10.2c0.9,1.8,2.7,3.1,4.8,3.8c3.6,1.1,7.3,2.3,10.9,3.1c1.5,0.3,2.5,0.3,1.1,2
		c-0.1,0.1,0,0.5,0,0.7c-0.2,1.6,3.6,2.6,1.1,4.2c-2.8,1.7-6,2.7-9.2,0.5c-2.2-1.6-4.4-3.1-6.7-4.7c-0.8,4,3.8,5.1,4.6,8.2
		c-6.3-1.4-6.3-1.4-8.1,5.1c-0.3,1-0.7,2.2-2.4,3.2c-0.6-0.8-1.2-1.8-2-2.7c-1.2-1.6-4.1,0.9-4.8-1.9c-0.8,0.6-1.3,1.2-0.3,2.2
		c1.9,1.9,2.2,2.9,2,5c0.8,0,0.5-1.6,1.9-1c-1.5,2.1,0.3,4.5-1.2,7c-1.6,2.6-3.7,5.7-1.2,9.5c1-3.8,2-7.2,3.9-10.3
		c-1.1,4.5-2.4,8.9-1.9,13.5c0.5,4.9-2.9,8.5-4,12.9V99.3c-2.4,1.8-1.4,4.6-2.8,6.8c-4.3,6.4-7.4,13.5-9.9,20.9
		c-0.6,1.8-1.9,3.3-2.9,4.9c-1.5,2.6-1.6,5.3,0.2,7.6c1.3,1.7,1.4,3.1,0.7,5c-1,2.8-0.5,5.9-0.8,8.8c-0.4,3.7-2.6,5.6-4.9,7.6
		c-1,0.8-1.7,1.7-2.6,2.7C4.5,166.3,3,168.8,6.2,171.9z M40.7,37.5c-0.2,0-0.7,0-1.1,0c-0.6,0-1.2,0.2-1.5,0.7
		c0-1.4-1.2-1.4-2.1-1.2c-2.7,0.6-5.6,0.7-7.9,1.5C31.8,36.9,36.2,36.3,40.7,37.5z M70.6,180.8c0.5,0.1,1.1,0,1.7-0.4
		c0,1.1-0.8,0.8-1.4,0.5C70.8,180.9,70.7,180.9,70.6,180.8z M66.2,179.2c0.9,0,1.8,0.5,2.6,1C68,179.8,67.1,179.5,66.2,179.2z
		 M176.8,272.7c0.2-0.1,0.5-0.2,0.7-0.1c0.1,0,0,0-0.4,0.1C177,272.6,176.9,272.6,176.8,272.7z M61.5,177.6c0.9,0.3,1.9,0.7,2.9,1.1
		C63.3,178.5,62.4,178,61.5,177.6z"/>
	<path class="st1" d="M153.2,248.7c-1.1-3.1-4-3.4-6.6-3.9c-3-0.7-5.1,1.5-7.2,3.3c-1,0.8-0.1,1.7,0.5,1.8c1.2,0.2,2.6,2.2,3.6,0.1
		c1.8-3.7,4.8-1.9,7.4-1.7c0.6,0,1.6,0.3,2.4,0.4C153.3,248.5,153.2,248.7,153.2,248.7z"/>
	<path class="st1" d="M187.5,244.8c-2.5,4.3-3.7,8.4-6.2,11.8c-0.6,0.9-1.5,2.7,1.1,3.1c1.8,0.2-0.8,1.5,0.3,2
		c2.6-2.6,2.6-2.6,0.1-4.6C186,256.2,188.4,250.2,187.5,244.8z"/>
	<path class="st1" d="M46.8,223.1c-2.2,5-7.3,4.7-11.4,6.7c5.2,1.5,11.2-1.3,12.9-3.2C48.8,226,48.7,226,46.8,223.1z"/>
	<path d="M132.6,52.9c-1.9,0.9-3.5,0.2-5.1-0.6c-2.3-1.1-2.4-0.9-3.5,1.6c-0.9,2.1-3,0.2-4.4,1.2c2.5,1.7,5.6-0.9,7.1,0
		C130.2,57.1,130.3,52.7,132.6,52.9z"/>
	<path d="M66.1,15c-2.6-5.6-7.5-8-13-9.7C57.6,8.4,61.9,11.6,66.1,15z"/>
	<path class="st1" d="M24.2,181.8c-1-1.7-2.9-1.7-4.6-2c-1.9-0.3-2.1,1.7-2.8,2.7c-0.8,1.1,0.6,1.8,1.1,0.7c1.1-2.1,1.3,1.1,1.6,0.2
		C20.4,180.7,22.8,183.1,24.2,181.8z"/>
	<path d="M149.4,62.1c1.3-0.5,2.2,1.6,3.8,0.2c-2.1-1.5-4.4-2.1-7.1-3.1c1,2,3,1.5,3.5,3C149.6,62.2,149.4,62.1,149.4,62.1z"/>
	<path d="M181.1,83.7c0.4,2.1,1.2,3.7,3.4,4.7C184.4,85.8,182.6,84.8,181.1,83.7z"/>
	<path d="M116.4,54.7c-2,0.7-4.2-3-6.7,0C112.2,54.7,114.3,54.7,116.4,54.7z"/>
	<path d="M43.8,4c2.6,0.4,5.2,0.7,8.1,1.2C49.2,3,46.5,3.6,43.8,4z"/>
	<path class="st1" d="M116,292.8c2.7-0.2,3.5-1.7,2.9-4.3c-0.2,1.9-2.8,2.3-2.7,4.4C116.2,292.9,116,292.8,116,292.8z"/>
	<path class="st1" d="M173.7,237.7c-0.4-1.6-0.8-3.3-1.3-4.9c0,0-0.7,0.1-0.7,0.2C171.6,234.9,172.5,236.5,173.7,237.7z"/>
	<path class="st1" d="M107.4,279.4c2.7,0.2,1.3-1.7,1.6-2.9c-1.9,0.4-1.5,1.8-1.5,3C107.5,279.5,107.4,279.4,107.4,279.4z"/>
	<path class="st1" d="M170,286.1c0.9,0.2,1.6,1.8,2.7,0.4c0.2-0.3,0.4-0.9,0.2-1C171.7,284.2,171.1,286.2,170,286.1z"/>
	<path class="st1" d="M180.1,263.3c0.5,1.4,1.1,2,2,2.4c0.1-0.4,0.4-0.9,0.3-1.3C182.2,262.9,181.1,264.1,180.1,263.3z"/>
	<path d="M50.2,32c0.2-0.1,0.9-0.3,1-0.6c0.2-0.8-0.4-1-1.1-1c-0.5,0-1,0.1-1.1,0.7C48.9,31.8,49.4,31.9,50.2,32z"/>
	<path class="st1" d="M112.9,290.5c0-0.7,0.3-1.7-0.9-1.5c-0.4,0.1-0.8,0.8-1.2,1.2c0.7,0.1,1.5,0.1,2.2,0.2
		C113,290.4,112.9,290.5,112.9,290.5z"/>
	<path d="M116.8,65.1c1.2-0.2,0.9-1.1,0.8-1.7c-0.2-0.8-1-0.5-1.6-0.5c0,0,0.1-0.1,0.1-0.1c-1.1,1.3,0,1.8,0.8,2.5L116.8,65.1z"/>
	<path class="st2" d="M187.9,227.3c6.1,0.2,11.6-1.3,16.7-4.7c2.5-1.7,3.7-4.1,4.8-6.7c3-7.1,5.3-14.4,4.8-22.3
		c-0.1-2.1-0.5-3.3-2.9-3.7c-2.2-0.4-4.3-1.5-6.5-2c-1.2-0.3-2.6-0.5-3.7,0.6c-1.5,1.6-3.1,2.5-5.4,2.3c-1.5-0.2-2.5,0.9-2.7,2.1
		c-0.4,2.3,1.5,0.4,1.8,0.8c0.8,0.9,0.8,2.6,0.1,3.2c-1.2,1,0.7,3.7-2,3.6c-5-0.3-6.5,4.3-9.6,6.7c-1.8,1.4-2.5,3.7-3.5,5.8
		c-0.6,1.2-3.1,3-5.5,2.4c-4-1.1-3.2,1.1-2.5,3.3c1.9,6.2,6.3,8.6,12.4,8.6C185.5,227.3,186.7,227.2,187.9,227.3z"/>
	<path class="st2" d="M49.3,90.9c5.1-0.2,7.2-2.4,7.7-7.8c1.6,1.4,1.9,3.8,1.7,5.2c-0.4,2.2,0.2,3.6,2.1,5
		c-0.2-4.7-0.4-9.5-0.7-14.9c1.6,3.5,1.5,6.9,3.6,9.6c0.7-2.5-1.7-4.4-1.2-6.9c4.1,2.5,3,7.6,5.9,10.5c-0.1,0,0.1,0,0.3-0.1
		c-1.1-1.7,5.1-1.6,1.2-2.9c-3-1-0.9-3.3-2.6-4c0.7-1.3-2.8-4.8,2.7-3.9c6.9,1.1,7,0.4,12.6,3.4c1.3-2.3-2.4-0.9-1.6-2.7
		c2,0.4,1.8-1,1.1-2.7c3.3,2.2,5.9,5,9.9,5.7c0.8,0.1,1.4,1.7,2,2.7c0.6,1,0.9,2.5,2.4,1.3c1.1-0.9,2.6-2.2,1-3.5
		c-2.1-1.6-0.3-4.5-2.4-5.8c0.3-0.4,0.6-1.1,0.9-1.1c1.1,0,2.4-0.3,3.2,0.6c1.5,1.4,3.1,2.7,4.1,4.8c0.9-2.6-1.5-3.8-2.1-5.6
		c-0.2-0.5-1.1-0.9-0.3-1.6c1.3-1.2,0.8,0.6,1.3,0.8c2.5,0.9,4.4,2.4,5.7,4.8c0.3,0.5,0.8,1.6,1.9,1.1c-0.9-1.4,3-1.3,0.9-3.1
		c-0.4-0.3-0.4-1.1-0.6-1.7c2.4-0.2,2.4,2.5,4.5,3.3c-0.5-2.6-0.6-5-1.6-6.9c-0.8-1.6,0.5-1.2,0.8-1.8c0.3-0.5,0-1.1,1.1-0.6
		c4.3,2,9.5,2.4,12.1,7.2c-3-6.3-8-10.7-13.7-13.8c-4.6-2.5-9.4-5.7-15.5-4.6c2.1,2.7,5.9,3.6,7.6,7.3c-3.4-0.3-4.3-3.5-6.7-4.4
		c-1.2-0.5-1.7-1.9-2.9,0.3c-0.7,1.3-2.9-1.6-4.7-0.2c0.1,0.2,0.3,0.4,0.4,0.8c0.4,1.4,3.5,1.4,2.3,3.2c-1,1.5-1.2-1.5-2.8-1.4
		c-1.4,0.1-3.7,1.8-4.5-1.1c-1.2,1.9-2.6,2.9-4.8,1.5c0.1,3.4-2.5,1.1-3.7,1.6c-0.7,0.3-0.8,0.6-0.6,0.9c1.4,2.3,0.2,5.4,2.2,7.4
		c0.1,0.1-0.1,0.5-0.2,0.7c-1.3-0.6-1.8-1.7-2.5-2.9c-1.3-2.2-4.4-2.4-5.9-0.2c-0.7,1.1-1.2,0.3-1.2,0.1c0.4-3.5-3-1.7-4.3-3
		c-0.5-0.5-1.6,0.6-1.6,1.6c-0.1,1.1,0,2.3,0,4c-1.1-2-1.1-4.9-4-2.3c-0.8,0.7-1.2,0.3-0.9-2.3c-4.4,2.9-6.9,7-8.1,12.6
		c-0.4-1.1-0.6-1.8-0.9-2.6C47.1,85.2,51.2,88.4,49.3,90.9L49.3,90.9z"/>
	<path class="st2" d="M99,202.3c-0.9,4.4-1,8.9-1.2,13.4c-0.2,7.5,2.7,8.8,7.6,10.4c7.7,2.5,15.5,2.5,23.6,0.7
		c7.3-1.6,10.3-6.6,13.1-12.4c0.3-0.6,0.7-1.2,0.6-1.8c-0.3-1.3,1.8-2.4,0.5-3.4c-1.5-1.2-1.8,1.1-2.9,1.6c-4.5,1.9-8.7,4.6-14,2.7
		c-1-0.4-0.7-0.9-0.7-1.3c0.1-1.6-0.9-1.6-2-1.5c-6,0.2-11.7-1.4-17.4-3.1c-1.1-0.3-1.8-1-2.5-1.8c-0.3-0.3-0.4-1-0.7-1.3
		c-1.2-0.9-1.5,3.1-3.1,0.6C99.5,204.3,101.3,202.6,99,202.3z"/>
	<path class="st2" d="M126.5,281c3-0.2,5.4,1.1,8,2c5.6,2,11.4,1.5,17-0.4c1.6-0.6,1.3-1.8,0.5-2.2c-3.1-1.5-5.4-4-9.5-4.4
		c-5.6-0.6-10.9,2.6-16.5,0.5c-1.3-0.5-3.7,1.2-4.1,2.8c-0.4,1.4,0,3.3,1.2,4.9c1,1.3,1.2-0.1,1.7-0.1c0.9,0,0.5-0.6,0.1-0.9
		C120.2,278.2,126.1,281.7,126.5,281z"/>
	<path class="st2" d="M38,38.4c1.3-0.1,2.6-0.5,3.8,0.3c1.4,0.9,2.1-0.2,2.2-1.1c0.2-1.2-1-0.9-1.7-0.9c-3.8,0-7.5-1.6-11.4-0.1
		c-3.3,1.2-6,3.1-8.7,5.4c4.4-2.5,9.4-2.9,14.1-4.2c1-0.3,1.4-0.1,1.8,0.7C38.1,38.5,38,38.4,38,38.4z"/>
	<path class="st2" d="M39.7,92c1.7-1.3,1.7-3.2,2.2-4.9c0.2-0.6,0.6-1.3,1.2-1c0.4,0.2,0.4,1.1,0.8,1.7c-0.5-3.4,3.7-4.2,3.6-7.3
		c-3.6-0.9-3.4-0.8-5.2,3.3C41.2,86.5,38.8,88.6,39.7,92z"/>
	<path class="st2" d="M70.6,84.8c2,3.8,3.7,7,5.4,10.2c1.2-2,1.2-2-0.9-5.6c-0.3-0.5-1.3-0.8-0.3-1.5c0.2-0.2,0.6-0.7,0.8-0.2
		c0.3,0.6,0.4,1.3,1.2,1.1c0.1,0,0.2-0.3,0.3-0.5c-1.5-0.4,0.9-2.1-1.1-2.9C74.3,84.8,72.8,85.3,70.6,84.8z"/>
	<path class="st2" d="M124.3,194.8c-2.7-0.1-2.3,2.3-3.2,3.5c-0.3,0.3,0.9,1.6,1.5,1.1c1.7-1.2,5,0.1,5.2-2.6
		C128,195,125.3,195.5,124.3,194.8z"/>
	<path class="st2" d="M187.2,196.5c-1.6-0.2-2.6-3.2-4.7-0.8c-0.6,0.7-1.5,2.1-0.5,2.7C184,199.5,185.9,198.9,187.2,196.5z"/>
	<path class="st2" d="M16.5,168.4c-0.1,1.4,0.3,2.6,1.7,2.5c0.6-0.1,1.2-1.5,1.4-2.4c0.4-1.7-1.4-1.9-2.2-2
		C15.9,166.3,16.7,167.8,16.5,168.4z"/>
	<path class="st2" d="M218.9,191.4c0.1,1,0.8,1.8,1.4,1.7c1.1-0.2,2.7-0.6,3.1-1.4c0.6-1-1.2-1.1-1.8-1.4
		C220.6,189.8,219.7,190.9,218.9,191.4z"/>
	<path class="st2" d="M51,174.6c-2-3.2-5.3-2.3-8.2-2.8l0.1-0.1c2.4,2,5.4,2.2,8.2,2.8L51,174.6z"/>
	<path class="st2" d="M28,106.4c-0.7,2-1.4,3.9-2,5.8c-0.2,0.5,0,1.1,0.6,1.2c0.6,0.1,0.9-0.3,0.9-0.9
		C27.4,110.5,29.2,108.7,28,106.4z"/>
	<path class="st2" d="M65.2,179.3c-2.2-2.3-5.1-2.7-7.9-3.3C59.8,177.5,62.3,179,65.2,179.3L65.2,179.3z"/>
	<path class="st2" d="M117,65.2c-0.2-0.8-1.2-1.4-0.8-2.5c-1.8-0.5-3.5-0.9-6.2-1.7C112.7,63.1,114.6,64.5,117,65.2z"/>
	<path class="st2" d="M94,193.3c1.4,0.2,2.4,2.3,4,1.1c0.3-0.3,0.8-0.7,0.2-1.2C96.8,192,95.4,192.4,94,193.3z"/>
	<path class="st2" d="M65.3,179.2c2.6,1,5.2,2,8.2,3.3c-0.6-1.1-0.9-1.6-1.2-2.2c0,0,0.1,0.1,0.1,0.1
		C69.8,181.2,67.9,177.8,65.3,179.2C65.2,179.3,65.3,179.2,65.3,179.2z"/>
	<path class="st2" d="M130.4,73.8c-1.7-1.3-3-2.3-4.3-3.2c-0.2,0.3-0.4,0.6-0.6,0.8C126.9,72.2,127.6,74.1,130.4,73.8z"/>
	<path class="st2" d="M32.2,171.7c0.7,0.1,1.1,0.2,1.2,0.2c0.9-1.3,2.8,0.1,3.6-1.4c0.1-0.1-0.3-0.8-0.5-0.8
		C34.8,169.4,33.6,170.3,32.2,171.7z"/>
	<path class="st2" d="M37.2,100.6c1.4-1.6,1.7-3.2,1.1-5.1C36.9,96.9,36.8,98.5,37.2,100.6z"/>
	<path class="st2" d="M24.5,129.8c2.5-1.8,0.4-3.5-0.3-5.3C24.3,126.2,24.4,128,24.5,129.8z"/>
	<path class="st2" d="M42.7,95.7c0.9-1.8,2.2-3.5,0-5C42.7,92.4,42.7,94.1,42.7,95.7z"/>
	<path class="st2" d="M49.3,90.9c-1.5,3.3,0.4,3.2,3,2.7C51.2,92.7,49.8,92.3,49.3,90.9C49.3,90.9,49.3,90.9,49.3,90.9z"/>
	<path class="st2" d="M176.1,273c1.3,0.2,2.6,0.5,4.4,0.8c-2.8-2.3-3.3-2.4-4.2-0.7C176.2,273.2,176.1,273,176.1,273z"/>
	<path class="st2" d="M51.1,174.5c1.1,0.7,2.2,1.7,4,1.2C54,173.6,52.4,174.3,51.1,174.5C51,174.6,51.1,174.5,51.1,174.5z"/>
	<path class="st2" d="M178.6,99.1c0.2,0.9,0.7,1,1.4,0.6c0.4-0.2,0.5-0.7,0.8-1.1c-0.5-0.3-1-0.9-1.5-0.9
		C178.3,97.7,178.7,98.6,178.6,99.1z"/>
	<path class="st2" d="M26.3,114.5c0.1,1.2-1.6,2.2-0.1,3.5C27.1,116.7,26.8,115.6,26.3,114.5z"/>
	<path class="st2" d="M42.8,171.7c-0.4-0.2-0.9-0.4-1.3-0.7c-0.5-0.3-1-0.9-1.7-0.5c-0.2,0.1-0.3,1-0.2,1c0.6,0.2,1.2,0.4,1.8,0.4
		C41.8,171.9,42.3,171.7,42.8,171.7C42.9,171.6,42.8,171.7,42.8,171.7z"/>
	<path class="st2" d="M96.3,16.3c0.3,0.7-0.3,2,0.5,2c0.9,0,1.5-1.2,1.1-2.1c-0.6-1.3-1.1,0.4-1.7,0.2
		C96.1,16.4,96.3,16.3,96.3,16.3z"/>
	<path class="st2" d="M139.5,77.6c0.1-0.2,0.4-0.6,0.3-0.7c-0.3-0.5-0.8-0.8-1.2-1.2c-0.3,0.4-0.6,0.7-0.9,1.1
		C138.2,77,138.8,77.3,139.5,77.6z"/>
	<path class="st2" d="M34,187.6c-0.5-0.8-1.1-1.6-1.6-2.4c0,1.2-0.6,3.1,1.7,2.3C34.1,187.5,34,187.6,34,187.6z"/>
</g>
</svg>
